<svg width="177" height="59" viewBox="0 0 177 59" fill="none" xmlns="http://www.w3.org/2000/svg">
<g clip-path="url(#clip0_174_96)">
<path d="M59.0226 30.1055C58.0775 30.2392 56.2335 30.2392 55.1096 30.2392V42.0686H46.8781V11.0547H55.1096V23.1938C56.414 23.1938 58.5724 23.2819 59.698 22.7063C61.138 21.997 61.6313 20.1366 62.5317 16.4141C63.4769 12.6477 66.5341 9.59046 73.9115 11.0971V16.5462C71.9319 16.4125 70.5828 16.856 70.0879 18.7621C69.0534 22.4845 67.9742 25.0982 66.2196 27.0027C69.2338 31.6105 72.157 36.2623 75.2159 40.8702V42.067H65.9051L59.0243 30.1039L59.0226 30.1055Z" fill="white"/>
<path d="M93.7662 17.7693C93.1504 12.4799 90.8182 8.05308 86.6635 4.66977C79.2497 -1.368 69.209 -1.54736 61.5005 4.12192C60.7722 4.65836 60.1002 5.2698 59.3702 5.87309C58.8306 5.40024 58.3274 4.9062 57.7696 4.48063C52.117 0.172827 45.8386 -1.05658 38.9843 0.947319C28.8029 3.92463 22.6934 14.9583 25.6116 25.0202C26.0866 26.6588 26.3846 26.1224 26.9242 27.7904C26.8812 27.7904 27.4704 27.5931 27.4274 27.5931C27.5383 24.9973 28.404 27.7447 28.4321 27.7904L30.9928 30.0699C31.0275 30.0079 31.0689 29.9508 31.1169 29.897C30.9448 29.8465 30.7594 29.7323 30.6915 29.6068C28.7367 25.9887 27.6144 22.1766 28.0878 18.0334C28.9237 10.719 34.3049 4.88174 41.5665 3.43222C46.3402 2.48 50.7845 3.32786 54.772 6.0981C55.9952 6.94923 57.0463 8.04819 58.1404 9.07052C58.9846 9.85969 59.8321 9.88414 60.6514 9.05911C60.7954 8.91399 60.9311 8.76072 61.0735 8.61235C65.4003 4.0942 70.6921 2.26151 76.886 3.39634C82.8912 4.49694 87.1204 7.95851 89.5039 13.4859C91.7915 18.7916 90.9506 23.9913 88.4711 28.9856C86.4202 33.1124 83.2802 36.4647 79.9913 39.6605C73.847 45.6314 66.9761 50.7072 59.8337 55.4471C59.5292 55.6493 59.3256 55.6868 58.9912 55.4683C54.5088 52.5187 50.1075 49.4534 46.0158 45.995C43.0264 43.4678 40.186 40.7693 37.2827 38.1425C36.4567 37.3957 35.5463 37.3175 34.9074 37.9632C34.2453 38.63 34.3165 39.4893 35.116 40.2997C35.7715 40.9633 36.4236 41.6302 37.1023 42.2726C43.6057 48.4261 50.7431 53.7824 58.2828 58.6364C59.0839 59.1516 59.7824 59.1043 60.567 58.5989C66.1336 55.0069 71.5048 51.1556 76.5616 46.8902C80.9778 43.1661 85.1523 39.2056 88.5985 34.5635C90.5732 31.9042 92.197 29.0638 92.9468 25.811C93.2746 24.3875 93.5775 22.9592 93.8903 21.5341V18.2813C93.8473 18.1117 93.7827 17.9421 93.7629 17.7693H93.7662Z" fill="url(#paint0_linear_174_96)"/>
<path d="M21.8624 37.1366C21.8293 37.1366 21.7979 37.1366 21.7648 37.1333C21.1623 37.0958 20.6376 36.7126 20.4257 36.1566L15.3573 22.8908L12.1445 31.9369C11.9293 32.5434 11.3467 32.9494 10.6945 32.9494H1.53606C0.688581 32.9494 0 32.2728 0 31.4363C0 30.5999 0.686925 29.9232 1.53606 29.9232H9.60372L13.8544 17.9569C14.0679 17.3569 14.6406 16.9509 15.2862 16.9443C15.2928 16.9443 15.2977 16.9443 15.3044 16.9443C15.9433 16.9443 16.516 17.334 16.7411 17.9243L22.1008 31.9499L25.7688 25.1344C26.0121 24.6811 26.4739 24.3795 26.9937 24.3354C27.5134 24.2914 28.0199 24.5083 28.3394 24.9143L32.2921 29.9232H42.7268C43.5743 29.9232 44.2628 30.5999 44.2628 31.4363C44.2628 32.2728 43.5759 32.9494 42.7268 32.9494H31.5406C31.0672 32.9494 30.6187 32.7342 30.3273 32.3657L27.3711 28.6204L23.2214 36.3327C22.9532 36.83 22.4302 37.1366 21.8641 37.1366H21.8624Z" fill="url(#paint1_linear_174_96)"/>
<path d="M108.812 25.8094C111.376 27.0942 112.725 29.6199 112.725 32.4554C112.725 37.7725 109.216 41.8928 102.741 41.8928H87.5839V10.9229H101.481C107.329 10.9229 111.421 14.6893 111.421 20.4483C111.421 22.3527 110.386 24.5686 108.812 25.8094ZM95.8137 17.9667V23.15H100.897C102.471 23.15 103.281 21.9533 103.325 20.7141C103.37 19.3412 102.56 17.9667 100.897 17.9667H95.8137ZM95.8137 29.708V34.8473H102.155C103.729 34.8473 104.449 33.6962 104.583 32.4554C104.628 31.5243 104.224 30.5509 103.459 30.0178C103.054 29.84 102.65 29.708 102.11 29.708H95.8137Z" fill="white"/>
<path d="M134.81 33.1629H121.361C121.72 35.9543 124.15 36.5739 126.758 36.5739C129.367 36.5739 132.56 35.9086 134.09 35.201L134.944 40.6502C132.29 41.847 129.276 42.6003 126.264 42.6443C119.022 42.6443 113.715 38.568 113.715 31.3025C113.715 23.5494 119.653 20.1367 125.229 20.1367C133.505 20.2704 136.743 25.6299 134.81 33.1629ZM128.424 28.6431C128.649 26.693 126.76 25.8957 125.186 25.8957C123.612 25.8957 121.768 26.8267 121.407 28.6431H128.424Z" fill="white"/>
<path d="M144.031 42.4685C139.982 42.4685 136.294 39.8548 136.16 35.7345C135.935 30.3294 139.578 27.8037 144.571 27.8037C146.189 27.8037 148.033 28.1135 149.429 29.0005V28.3352C149.429 26.165 146.414 25.8993 144.751 25.8993C142.637 25.8993 140.613 26.121 138.769 27.0504L137.868 21.6893C140.163 20.6702 143.175 20.1387 146.1 20.1387C151.993 20.1387 156.894 22.1768 156.894 28.557V35.4247C156.894 37.0193 156.894 37.9063 158.693 37.9063V42.0266C155.589 42.7359 151.496 43.1338 151.003 39.1031C149.788 41.5848 146.595 42.4701 144.031 42.4701V42.4685ZM149.382 33.6067C148.437 32.9414 147.179 32.5876 145.964 32.6316C144.39 32.7653 143.311 33.6067 143.625 35.2013C143.761 36.2204 144.615 36.7079 145.65 36.7079C147.224 36.7079 149.382 35.8666 149.382 34.0502V33.6067Z" fill="white"/>
<path d="M169.397 20.7139H176.009V26.031H169.397V33.4743C169.397 37.3728 173.58 37.1071 176.369 36.132L176.998 41.7589C169.532 43.797 161.886 42.6899 161.886 33.6504V26.0294L158.062 25.5419V20.7123H161.886L162.74 14.1104H169.397V20.7123V20.7139Z" fill="white"/>
<path d="M80.0492 31.2895C81.8016 31.2895 83.2223 29.89 83.2223 28.1638C83.2223 26.4375 81.8016 25.0381 80.0492 25.0381C78.2967 25.0381 76.8761 26.4375 76.8761 28.1638C76.8761 29.89 78.2967 31.2895 80.0492 31.2895Z" fill="white"/>
</g>
<defs>
<linearGradient id="paint0_linear_174_96" x1="95.5158" y1="23.357" x2="7.38954" y2="36.0897" gradientUnits="userSpaceOnUse">
<stop stop-color="#F200CC"/>
<stop offset="1" stop-color="#95FFFF"/>
</linearGradient>
<linearGradient id="paint1_linear_174_96" x1="94.511" y1="16.3965" x2="6.38478" y2="29.1292" gradientUnits="userSpaceOnUse">
<stop stop-color="#F200CC"/>
<stop offset="1" stop-color="#95FFFF"/>
</linearGradient>
<clipPath id="clip0_174_96">
<rect width="177" height="59" fill="white"/>
</clipPath>
</defs>
</svg>
