<svg width="204" height="75" viewBox="0 0 204 75" fill="none" xmlns="http://www.w3.org/2000/svg">
<path d="M84.2009 66.3967C82.2646 65.4137 80.7037 64.0633 79.5228 62.3362L79.4633 67.0765H73.3479V16.7841H80.1956V35.3963C81.4178 33.9585 82.9238 32.8332 84.7181 32.0201C86.5124 31.2071 88.4899 30.7983 90.6504 30.7983C93.5021 30.7983 96.0517 31.5654 98.2946 33.0996C100.538 34.6338 102.3 36.8018 103.581 39.6038C104.863 42.4057 105.509 45.6532 105.509 49.3416C105.509 53.0301 104.868 56.2776 103.581 59.0795C102.3 61.8814 100.533 64.0495 98.2946 65.5837C96.0517 67.1178 93.5067 67.8849 90.6504 67.8849C88.2885 67.8849 86.1371 67.3934 84.2009 66.4105V66.3967ZM82.7956 57.4167C84.5258 59.5021 86.7413 60.5402 89.4282 60.5402C92.1151 60.5402 94.3809 59.4975 96.0929 57.4167C97.8048 55.3313 98.6608 52.6396 98.6608 49.3324C98.6608 46.0252 97.8048 43.3335 96.0929 41.2482C94.3809 39.1628 92.1609 38.1201 89.4282 38.1201C86.6955 38.1201 84.5258 39.1628 82.7956 41.2482C81.0608 43.3335 80.1956 46.0252 80.1956 49.3324C80.1956 52.6396 81.0608 55.3313 82.7956 57.4167Z" fill="#F06292"/>
<path d="M117.03 65.749C114.563 64.1919 112.658 62.0009 111.313 59.176C109.967 56.3511 109.294 53.0668 109.294 49.3324C109.294 45.5981 109.944 42.4838 111.249 39.7048C112.553 36.9258 114.389 34.7578 116.751 33.2006C119.113 31.6435 121.845 30.8672 124.944 30.8672C129.837 30.8672 133.664 32.5208 136.438 35.8234C139.207 39.1306 140.594 43.7056 140.594 49.5483C140.594 50.173 140.553 51.1055 140.471 52.3503H116.32C116.604 54.9363 117.602 56.9987 119.314 58.5283C121.026 60.0625 123.205 60.8296 125.855 60.8296C127.567 60.8296 129.219 60.4942 130.808 59.8236C132.396 59.153 133.641 58.2665 134.538 57.1641L138.695 61.9044C137.184 63.8198 135.28 65.331 132.977 66.4334C130.675 67.5358 128.24 68.087 125.672 68.087C122.372 68.087 119.488 67.3062 117.021 65.7536L117.03 65.749ZM133.934 46.0987C133.691 43.5586 132.781 41.5467 131.215 40.0631C129.645 38.5794 127.617 37.8353 125.132 37.8353C122.646 37.8353 120.829 38.5519 119.323 39.9896C117.813 41.4273 116.838 43.4622 116.389 46.0987H133.934Z" fill="#F06292"/>
<path d="M151.328 65.5331C149.067 63.976 147.305 61.785 146.041 58.9601C144.778 56.1352 144.146 52.9244 144.146 49.3324C144.146 45.7405 144.778 42.5297 146.041 39.7048C147.305 36.8799 149.067 34.6889 151.328 33.1317C153.589 31.5746 156.189 30.7983 159.123 30.7983C161.449 30.7983 163.563 31.2898 165.481 32.2728C167.395 33.2558 168.946 34.6062 170.127 36.3333L170.187 31.593H176.302V67.0903H170.187L170.127 62.35C168.946 64.0725 167.395 65.4275 165.481 66.4105C163.563 67.3934 161.444 67.8849 159.123 67.8849C156.189 67.8849 153.589 67.1041 151.328 65.5515V65.5331ZM153.562 57.4121C155.274 59.4975 157.494 60.5356 160.227 60.5356C162.959 60.5356 165.179 59.4929 166.891 57.4121C168.603 55.3267 169.459 52.635 169.459 49.3278C169.459 46.0206 168.603 43.3289 166.891 41.2436C165.179 39.1582 162.959 38.1155 160.227 38.1155C157.494 38.1155 155.274 39.1582 153.562 41.2436C151.85 43.3289 150.994 46.0206 150.994 49.3278C150.994 52.635 151.85 55.3267 153.562 57.4121Z" fill="#F06292"/>
<path d="M189.874 64.3481C188.162 62.1938 187.306 59.029 187.306 54.8628V38.4095H181.621V31.5838H187.306V22.3144L194.095 21.4509V31.5838H202.778V38.4095H194.095V54.8628C194.095 56.6818 194.452 58.0736 195.166 59.029C195.88 59.989 196.928 60.4667 198.315 60.4667C199.537 60.4667 200.8 60.1084 202.105 59.3873L204 65.8547C202.819 66.4794 201.707 66.9203 200.668 67.1821C199.629 67.444 198.475 67.5772 197.212 67.5772C194.03 67.5772 191.586 66.4977 189.874 64.3435V64.3481Z" fill="#F06292"/>
<path d="M39.5394 66.484L20.6852 42.4516L37.562 19.7422H26.3932L11.9561 39.6727V0H0V67.0811H11.9561V46.1906L27.9266 66.8514L33.7536 74.8071L46.8769 75L39.5394 66.484Z" fill="#69DBF2"/>
<path d="M57.675 45.5935L56.6954 40.55C56.4299 39.1766 56.1644 37.7986 55.8944 36.4252C55.7433 35.6535 55.5877 34.8818 55.432 34.1101L55.1162 32.5162C54.9697 31.7721 54.4479 31.3541 53.656 31.3863C52.9145 31.4092 52.4156 31.8226 52.2508 32.553L52.1318 33.0812C51.9258 33.9907 51.7244 34.9002 51.5321 35.8097C51.0744 37.9593 50.6212 40.1044 50.1681 42.2541L49.1427 47.0955C48.7903 44.6932 48.4424 42.2909 48.0991 39.8839C47.9892 39.1169 47.5773 38.6759 46.8769 38.5748C46.1766 38.4692 45.6365 38.7632 45.2657 39.443C44.7393 40.4076 44.2083 41.3676 43.6773 42.3276C43.0502 43.4622 42.4231 44.5967 41.8052 45.7313C41.7182 45.892 41.6908 45.9517 41.3566 45.9517C39.9468 45.9334 38.5324 45.938 37.118 45.938H35.1039V48.524H35.5616C37.7908 48.524 40.02 48.524 42.2492 48.5332H42.2675C43.096 48.5332 43.6407 48.2209 43.9886 47.5502C44.3273 46.8934 44.7027 46.2273 45.0597 45.5843L45.7784 44.2935C45.7921 44.3762 45.8012 44.4635 45.815 44.5462L46.0759 46.3468C46.3322 48.106 46.5885 49.8607 46.8449 51.6199C46.9227 52.139 47.0005 52.658 47.0783 53.1771C47.1882 53.9028 47.298 54.6286 47.4033 55.3497C47.5086 56.0938 48.035 56.5394 48.8086 56.544H48.8132C49.573 56.544 50.0994 56.126 50.255 55.4002C50.4564 54.4586 50.6624 53.5124 50.8638 52.5707C51.0606 51.6567 51.2621 50.7426 51.4543 49.8285C51.848 47.982 52.2416 46.1355 52.6307 44.2844L53.4226 40.55C53.4638 40.3525 53.505 40.1504 53.5507 39.9529C53.9352 41.7764 54.2969 43.6 54.6493 45.3822L54.8965 46.6362C55.162 47.982 55.6197 48.1887 57.0433 48.1887C60.2337 48.1887 63.4241 48.1887 66.6146 48.1887C66.7473 48.1887 66.8755 48.1795 67.0082 48.1657L67.5896 48.1244V45.5935H57.6704H57.675Z" fill="#69DBF2"/>
</svg>
