<svg width="267" height="90" viewBox="0 0 267 90" fill="none" xmlns="http://www.w3.org/2000/svg">
<g clip-path="url(#clip0_389_504)">
<path d="M140.977 27.1057C140.051 19.0371 136.545 12.2843 130.298 7.12335C119.152 -2.08682 104.056 -2.36042 92.4659 6.28764C91.3708 7.10594 90.3605 8.03864 89.263 8.95891C88.4517 8.23762 87.6951 7.48399 86.8564 6.83483C78.3577 0.263597 68.9182 -1.61177 58.6127 1.44503C43.305 5.98669 34.1194 22.8177 38.5069 38.1663C39.2211 40.666 39.6691 39.8477 40.4804 42.3921C40.4157 42.3921 41.3017 42.0911 41.237 42.0911C41.4037 38.1315 42.7053 42.3225 42.7476 42.3921L46.5975 45.8692C46.6498 45.7747 46.712 45.6877 46.7842 45.6056C46.5253 45.5285 46.2466 45.3544 46.1446 45.1629C43.2055 39.6437 41.5182 33.8286 42.2299 27.5086C43.4867 16.3509 51.5773 7.44668 62.495 5.23555C69.6723 3.78301 76.3543 5.07637 82.3495 9.30215C84.1886 10.6005 85.7689 12.2769 87.4139 13.8363C88.6831 15.0402 89.9573 15.0775 91.1892 13.8189C91.4057 13.5976 91.6098 13.3638 91.8238 13.1374C98.3291 6.24536 106.285 3.44972 115.598 5.18083C124.627 6.8597 130.985 12.1401 134.569 20.5717C138.008 28.6651 136.744 36.5969 133.016 44.2152C129.933 50.5104 125.212 55.6241 120.267 60.4991C111.029 69.6072 100.698 77.35 89.9598 84.5803C89.5019 84.8887 89.1958 84.9459 88.6931 84.6126C81.9538 80.1133 75.3365 75.4373 69.1845 70.1619C64.69 66.3067 60.4195 62.1904 56.0544 58.1835C54.8126 57.0443 53.4438 56.9249 52.4832 57.9099C51.4877 58.9271 51.5947 60.2379 52.7967 61.474C53.7822 62.4863 54.7628 63.5036 55.7831 64.4836C65.561 73.8703 76.2921 82.0409 87.6279 89.4453C88.8324 90.2313 89.8826 90.1591 91.0623 89.3881C99.4316 83.9088 107.507 78.0339 115.11 71.5274C121.75 65.8466 128.026 59.8051 133.208 52.724C136.177 48.6674 138.618 44.3346 139.745 39.3726C140.238 37.2013 140.693 35.0225 141.164 32.8486V27.8866C141.099 27.628 141.002 27.3693 140.972 27.1057H140.977Z" fill="url(#paint0_linear_389_504)"/>
<path d="M32.8701 56.6489C32.8203 56.6489 32.7731 56.6489 32.7233 56.6439C31.8174 56.5867 31.0285 56.0022 30.71 55.1541L23.0897 34.9181L18.2592 48.7171C17.9357 49.6424 17.0597 50.2617 16.0792 50.2617H2.30947C1.03528 50.2617 0 49.2295 0 47.9536C0 46.6776 1.03279 45.6454 2.30947 45.6454H14.4392L20.83 27.3917C21.1511 26.4764 22.0121 25.8571 22.9827 25.8472C22.9927 25.8472 23.0001 25.8472 23.0101 25.8472C23.9707 25.8472 24.8318 26.4416 25.1702 27.342L33.2285 48.737L38.7433 38.3405C39.1092 37.649 39.8035 37.1889 40.5849 37.1217C41.3664 37.0546 42.1279 37.3854 42.6082 38.0047L48.5511 45.6454H64.2396C65.5138 45.6454 66.549 46.6776 66.549 47.9536C66.549 49.2295 65.5163 50.2617 64.2396 50.2617H47.4213C46.7095 50.2617 46.0351 49.9334 45.5971 49.3713L41.1523 43.6581L34.9133 55.4227C34.5101 56.1813 33.7237 56.6489 32.8726 56.6489H32.8701Z" fill="url(#paint1_linear_389_504)"/>
<path d="M89.7358 45.924C88.3148 46.128 85.5424 46.128 83.8526 46.128V64.1727H71.4766V16.8634H83.8526V35.3807C85.8137 35.3807 89.0589 35.515 90.7512 34.637C92.9163 33.5551 93.6579 30.7172 95.0117 25.0388C96.4328 19.2934 101.029 14.6298 112.121 16.928V25.2403C109.145 25.0364 107.117 25.7129 106.372 28.6204C104.817 34.2988 103.194 38.2858 100.556 41.1908C105.088 48.2197 109.483 55.3158 114.082 62.3446V64.1702H100.084L89.7383 45.9215L89.7358 45.924Z" fill="url(#paint2_linear_389_504)"/>
<path d="M164.482 39.3702C168.337 41.3301 170.366 45.1828 170.366 49.5081C170.366 57.6189 165.09 63.9041 155.354 63.9041H132.566V16.6619H153.46C162.253 16.6619 168.405 22.4073 168.405 31.1922C168.405 34.0973 166.849 37.4774 164.482 39.3702ZM144.939 27.4066V35.3135H152.582C154.948 35.3135 156.165 33.4879 156.233 31.5976C156.3 29.5034 155.083 27.4066 152.582 27.4066H144.939ZM144.939 45.3171V53.1568H154.473C156.84 53.1568 157.922 51.4008 158.124 49.5081C158.191 48.0879 157.584 46.603 156.434 45.7897C155.824 45.5186 155.217 45.3171 154.406 45.3171H144.939Z" fill="url(#paint3_linear_389_504)"/>
<path d="M203.569 50.5874H183.349C183.889 54.8455 187.542 55.7907 191.464 55.7907C195.387 55.7907 200.187 54.7759 202.487 53.6965L203.771 62.0087C199.782 63.8344 195.25 64.9835 190.72 65.0506C179.832 65.0506 171.854 58.8326 171.854 47.7495C171.854 35.9228 180.781 30.717 189.165 30.717C201.608 30.921 206.476 39.0965 203.569 50.5874ZM193.968 43.6929C194.306 40.7181 191.467 39.5019 189.1 39.5019C186.733 39.5019 183.961 40.9221 183.419 43.6929H193.968Z" fill="url(#paint4_linear_389_504)"/>
<path d="M217.431 64.7822C211.344 64.7822 205.799 60.7952 205.597 54.51C205.259 46.2648 210.737 42.4121 218.242 42.4121C220.676 42.4121 223.449 42.8847 225.547 44.2378V43.223C225.547 39.9125 221.015 39.5071 218.514 39.5071C215.336 39.5071 212.292 39.8453 209.52 41.263L208.166 33.0851C211.615 31.5306 216.144 30.7197 220.542 30.7197C229.401 30.7197 236.77 33.8287 236.77 43.5612V54.0374C236.77 56.4699 236.77 57.8229 239.475 57.8229V64.1081C234.809 65.1901 228.655 65.797 227.913 59.6486C226.087 63.4341 221.286 64.7847 217.431 64.7847V64.7822ZM225.477 51.2642C224.056 50.2494 222.164 49.7096 220.338 49.7768C217.971 49.9807 216.348 51.2642 216.821 53.6967C217.025 55.2512 218.31 55.9948 219.865 55.9948C222.232 55.9948 225.477 54.7114 225.477 51.9407V51.2642Z" fill="url(#paint5_linear_389_504)"/>
<path d="M255.572 31.5976H265.512V39.7085H255.572V51.0626C255.572 57.0096 261.861 56.6041 266.054 55.1168L267 63.7002C255.774 66.8092 244.279 65.1204 244.279 51.3312V39.706L238.53 38.9623V31.5952H244.279L245.563 21.5244H255.572V31.5952V31.5976Z" fill="url(#paint6_linear_389_504)"/>
<path d="M120.354 47.7298C122.988 47.7298 125.124 45.5951 125.124 42.9618C125.124 40.3286 122.988 38.1938 120.354 38.1938C117.719 38.1938 115.583 40.3286 115.583 42.9618C115.583 45.5951 117.719 47.7298 120.354 47.7298Z" fill="url(#paint7_linear_389_504)"/>
</g>
<defs>
<linearGradient id="paint0_linear_389_504" x1="143.608" y1="35.6294" x2="11.0327" y2="54.5088" gradientUnits="userSpaceOnUse">
<stop stop-color="#F200CC"/>
<stop offset="1" stop-color="#95FFFF"/>
</linearGradient>
<linearGradient id="paint1_linear_389_504" x1="142.097" y1="25.0115" x2="9.52212" y2="43.8909" gradientUnits="userSpaceOnUse">
<stop stop-color="#F200CC"/>
<stop offset="1" stop-color="#95FFFF"/>
</linearGradient>
<linearGradient id="paint2_linear_389_504" x1="117.295" y1="44.9689" x2="247.054" y2="67.5234" gradientUnits="userSpaceOnUse">
<stop stop-color="#F200CC"/>
<stop offset="1" stop-color="#95FFFF"/>
</linearGradient>
<linearGradient id="paint3_linear_389_504" x1="118.863" y1="35.9453" x2="248.622" y2="58.4997" gradientUnits="userSpaceOnUse">
<stop stop-color="#F200CC"/>
<stop offset="1" stop-color="#95FFFF"/>
</linearGradient>
<linearGradient id="paint4_linear_389_504" x1="118.923" y1="35.597" x2="248.682" y2="58.1514" gradientUnits="userSpaceOnUse">
<stop stop-color="#F200CC"/>
<stop offset="1" stop-color="#95FFFF"/>
</linearGradient>
<linearGradient id="paint5_linear_389_504" x1="119.826" y1="30.3964" x2="249.587" y2="52.9508" gradientUnits="userSpaceOnUse">
<stop stop-color="#F200CC"/>
<stop offset="1" stop-color="#95FFFF"/>
</linearGradient>
<linearGradient id="paint6_linear_389_504" x1="121.64" y1="19.9674" x2="251.399" y2="42.5194" gradientUnits="userSpaceOnUse">
<stop stop-color="#F200CC"/>
<stop offset="1" stop-color="#95FFFF"/>
</linearGradient>
<linearGradient id="paint7_linear_389_504" x1="117.723" y1="42.5042" x2="247.482" y2="65.0586" gradientUnits="userSpaceOnUse">
<stop stop-color="#F200CC"/>
<stop offset="1" stop-color="#95FFFF"/>
</linearGradient>
<clipPath id="clip0_389_504">
<rect width="267" height="90" fill="white"/>
</clipPath>
</defs>
</svg>
