<svg width="20" height="20" viewBox="0 0 20 20" fill="none" xmlns="http://www.w3.org/2000/svg">
<path d="M13.8701 20H6.12987C2.75325 20 0 17.2468 0 13.8701V6.12987C0 2.75325 2.75325 0 6.12987 0H13.8961C17.2468 0 20 2.75325 20 6.12987V13.8961C20 17.2468 17.2468 20 13.8701 20ZM6.12987 1.50649C3.58442 1.50649 1.50649 3.58442 1.50649 6.12987V13.8961C1.50649 16.4416 3.58442 18.5195 6.12987 18.5195H13.8961C16.4416 18.5195 18.5195 16.4416 18.5195 13.8961V6.12987C18.5195 3.58442 16.4416 1.50649 13.8961 1.50649H6.12987Z" fill="white"/>
<path d="M9.99999 15.0648C7.22077 15.0648 4.93505 12.8051 4.93505 9.99991C4.93505 7.22069 7.22077 4.93497 9.99999 4.93497C12.8052 4.93497 15.0649 7.22069 15.0649 9.99991C15.0649 12.8051 12.8052 15.0648 9.99999 15.0648ZM9.99999 6.46744C8.05193 6.46744 6.46752 8.05186 6.46752 9.99991C6.46752 11.948 8.05193 13.5324 9.99999 13.5324C11.948 13.5324 13.5325 11.948 13.5325 9.99991C13.5325 8.05186 11.948 6.46744 9.99999 6.46744Z" fill="white"/>
<path d="M16.935 4.38955C16.935 5.11682 16.3376 5.71423 15.6104 5.71423C14.8831 5.71423 14.2857 5.11682 14.2857 4.38955C14.2857 3.66228 14.8831 3.06488 15.6104 3.06488C16.3376 3.06488 16.935 3.66228 16.935 4.38955Z" fill="white"/>
</svg>
