<svg width="20" height="14" viewBox="0 0 20 14" fill="none" xmlns="http://www.w3.org/2000/svg">
<path d="M19.5647 2.2575C19.3353 1.40292 18.8324 0.679583 17.9706 0.452083C16.4088 0.0379167 10 0 10 0C10 0 3.59118 0.0379167 2.02941 0.452083C1.16765 0.679583 0.667647 1.40292 0.435294 2.2575C0.0176471 3.80625 0 7 0 7C0 7 0.0176471 10.1937 0.435294 11.7425C0.664706 12.5971 1.16765 13.3204 2.02941 13.5479C3.59118 13.9621 10 14 10 14C10 14 16.4088 13.9621 17.9706 13.5479C18.8324 13.3204 19.3353 12.5971 19.5647 11.7425C19.9824 10.1937 20 7 20 7C20 7 19.9824 3.80625 19.5647 2.2575ZM7.94118 9.91667V4.08333L13.2353 7L7.94118 9.91667Z" fill="white"/>
</svg>
