<svg width="18" height="20" viewBox="0 0 18 20" fill="none" xmlns="http://www.w3.org/2000/svg">
<path d="M15.3209 4.01262C14.2046 3.30929 13.4047 2.18215 13.1535 0.874662C13.0977 0.595131 13.0698 0.297565 13.0698 0H9.51628V13.7872C9.45116 15.3291 8.13953 16.5735 6.53023 16.5735C6.02791 16.5735 5.56279 16.4563 5.14419 16.2399C4.19535 15.7529 3.54419 14.7881 3.54419 13.679C3.54419 12.083 4.88372 10.7845 6.53023 10.7845C6.83721 10.7845 7.13488 10.8296 7.41395 10.9197V7.40307C7.12558 7.367 6.83721 7.33995 6.53023 7.33995C2.93023 7.33995 0 10.1803 0 13.67C0 15.8161 1.10698 17.7096 2.7907 18.8548C3.85116 19.5762 5.14419 20 6.53023 20C10.1302 20 13.0605 17.1596 13.0605 13.67V6.69071C14.4558 7.65555 16.1581 8.23264 18 8.23264V4.7881C17.0047 4.7881 16.0837 4.49955 15.3116 4.01262H15.3209Z" fill="white"/>
</svg>
